<svg width="100" height="100" viewBox="0 0 100 100" fill="none" xmlns="http://www.w3.org/2000/svg">
<g clip-path="url(#clip0_614_53)">
<path opacity="0.1" d="M36.6364 -11.0857L41.7273 -20L64 19H53.8182L48.7273 10.0857L43.6364 19H38.5455L36 14.5429L43.6364 1.17143L36.6364 -11.0857Z" fill="#c3c3c3"/>
<path opacity="0.1" d="M36.6364 88.9143L41.7273 80L64 119H53.8182L48.7273 110.086L43.6364 119H38.5455L36 114.543L43.6364 101.171L36.6364 88.9143Z" fill="#c3c3c3"/>
<path opacity="0.1" d="M-13.3636 38.9143L-8.27273 30L14 69H3.81818L-1.27273 60.0857L-6.36364 69H-11.4545L-14 64.5429L-6.36364 51.1714L-13.3636 38.9143Z" fill="#c3c3c3"/>
<path opacity="0.1" d="M86.6364 38.9143L91.7273 30L114 69H103.818L98.7273 60.0857L93.6364 69H88.5455L86 64.5429L93.6364 51.1714L86.6364 38.9143Z" fill="#c3c3c3"/>
</g>
<defs>
<clipPath id="clip0_614_53">
<rect width="100" height="100" fill="white"/>
</clipPath>
</defs>
</svg>
